<?xml version="1.0" standalone="no"?>
<!DOCTYPE svg PUBLIC "-//W3C//DTD SVG 20010904//EN"
 "http://www.w3.org/TR/2001/REC-SVG-20010904/DTD/svg10.dtd">
<svg version="1.0" xmlns="http://www.w3.org/2000/svg"
 width="1080.000000pt" height="1080.000000pt" viewBox="0 0 1080.000000 1080.000000"
 preserveAspectRatio="xMidYMid meet">

<g transform="translate(0.000000,1080.000000) scale(0.100000,-0.100000)"
fill="#000000" stroke="none">
<path d="M3655 6788 c11 -6 28 -21 38 -32 13 -15 12 -11 -3 12 -12 17 -29 32
-38 32 -14 -1 -14 -2 3 -12z"/>
<path d="M4205 6789 c-4 -6 -5 -12 -2 -15 2 -3 7 2 10 11 7 17 1 20 -8 4z"/>
<path d="M4706 6787 c3 -10 9 -15 12 -12 3 3 0 11 -7 18 -10 9 -11 8 -5 -6z"/>
<path d="M4763 6793 c-15 -5 -17 -23 -4 -23 5 0 11 7 15 15 3 8 4 15 3 14 -1
0 -8 -3 -14 -6z"/>
<path d="M4906 6787 c3 -10 9 -15 12 -12 3 3 0 11 -7 18 -10 9 -11 8 -5 -6z"/>
<path d="M4078 6771 c-64 -24 -74 -35 -12 -15 27 9 61 17 77 18 15 0 27 4 27
9 0 12 -42 6 -92 -12z"/>
<path d="M5135 6756 c17 -13 32 -22 35 -19 6 5 -41 42 -55 43 -5 0 4 -11 20
-24z"/>
<path d="M2870 6750 c-23 -7 -23 -8 -3 -9 12 -1 25 4 28 9 3 6 5 10 3 9 -2 -1
-14 -5 -28 -9z"/>
<path d="M2837 6719 c7 -7 15 -10 18 -7 3 3 -2 9 -12 12 -14 6 -15 5 -6 -5z"/>
<path d="M5835 6673 c-37 -32 -38 -33 -9 -19 30 15 60 43 53 50 -2 2 -22 -12
-44 -31z"/>
<path d="M5180 6690 c0 -8 5 -22 10 -30 9 -13 10 -13 10 0 0 8 -5 22 -10 30
-9 13 -10 13 -10 0z"/>
<path d="M4163 6612 c0 -52 4 -78 10 -70 5 8 6 2 2 -17 -4 -16 -12 -33 -18
-37 -7 -4 8 -8 32 -8 38 0 42 2 28 13 -17 13 -37 74 -20 64 6 -4 10 23 11 66
1 63 -1 70 -13 54 -13 -18 -14 -18 -23 0 -8 13 -10 -5 -9 -65z"/>
<path d="M4710 6664 c0 -14 4 -23 9 -20 5 3 7 15 4 26 -7 28 -13 25 -13 -6z"/>
<path d="M4912 6665 c0 -16 2 -22 5 -12 2 9 2 23 0 30 -3 6 -5 -1 -5 -18z"/>
<path d="M3982 6660 c0 -14 2 -19 5 -12 2 6 2 18 0 25 -3 6 -5 1 -5 -13z"/>
<path d="M4752 6660 c0 -14 2 -19 5 -12 2 6 2 18 0 25 -3 6 -5 1 -5 -13z"/>
<path d="M4952 6660 c0 -14 2 -19 5 -12 2 6 2 18 0 25 -3 6 -5 1 -5 -13z"/>
<path d="M3451 6654 c0 -11 3 -14 6 -6 3 7 2 16 -1 19 -3 4 -6 -2 -5 -13z"/>
<path d="M3801 6654 c0 -11 3 -14 6 -6 3 7 2 16 -1 19 -3 4 -6 -2 -5 -13z"/>
<path d="M4011 6654 c0 -11 3 -14 6 -6 3 7 2 16 -1 19 -3 4 -6 -2 -5 -13z"/>
<path d="M4371 6654 c0 -11 3 -14 6 -6 3 7 2 16 -1 19 -3 4 -6 -2 -5 -13z"/>
<path d="M4405 6661 c-3 -5 -1 -12 5 -16 5 -3 10 1 10 9 0 18 -6 21 -15 7z"/>
<path d="M3490 6639 c0 -5 5 -7 10 -4 6 3 10 8 10 11 0 2 -4 4 -10 4 -5 0 -10
-5 -10 -11z"/>
<path d="M3528 6643 c7 -3 16 -2 19 1 4 3 -2 6 -13 5 -11 0 -14 -3 -6 -6z"/>
<path d="M3570 6640 c19 -13 30 -13 30 0 0 6 -10 10 -22 10 -19 0 -20 -2 -8
-10z"/>
<path d="M5410 6640 c30 -4 59 -3 65 1 5 5 -19 8 -55 8 l-65 -2 55 -7z"/>
<path d="M5771 6617 c14 -12 31 -33 38 -47 6 -14 26 -42 44 -63 28 -34 35 -37
57 -28 14 5 18 10 9 10 -9 1 -46 35 -83 76 -37 41 -73 75 -79 75 -7 0 0 -10
14 -23z"/>
<path d="M4384 6622 c-6 -4 -11 -32 -10 -62 0 -31 -4 -61 -8 -68 -5 -9 5 -12
36 -11 24 1 35 3 26 6 -10 2 -18 8 -18 13 0 5 -3 16 -7 26 -5 12 -3 15 6 9 10
-6 12 2 6 36 -8 49 -15 61 -31 51z"/>
<path d="M4912 6575 c0 -59 0 -59 10 -22 7 25 7 46 1 60 -8 17 -10 8 -11 -38z"/>
<path d="M5693 6580 c0 -30 2 -43 4 -27 2 15 2 39 0 55 -2 15 -4 2 -4 -28z"/>
<path d="M3831 6603 c0 -12 -4 -30 -8 -40 -6 -15 -9 -13 -15 12 -5 20 -6 15
-2 -16 4 -35 1 -51 -11 -63 -15 -15 -13 -16 25 -16 38 0 40 1 26 16 -19 18
-20 31 -4 36 9 3 9 15 1 49 -6 24 -11 34 -12 22z"/>
<path d="M3984 6555 c1 -38 -2 -66 -8 -69 -6 -2 7 -5 29 -5 29 0 36 2 24 9
-12 7 -15 23 -14 70 2 52 0 60 -15 60 -15 0 -18 -9 -16 -65z"/>
<path d="M4717 6591 c-10 -46 -9 -63 3 -56 6 3 10 15 10 26 0 26 18 24 23 -3
3 -17 5 -14 6 9 1 24 -3 31 -13 27 -9 -3 -16 2 -18 13 -3 12 -6 6 -11 -16z"/>
<path d="M5187 6614 c-4 -4 -7 -14 -7 -23 0 -11 3 -12 11 -4 6 6 10 16 7 23
-2 6 -7 8 -11 4z"/>
<path d="M5323 6580 c0 -25 2 -35 4 -22 2 12 2 32 0 45 -2 12 -4 2 -4 -23z"/>
<path d="M5363 6585 c0 -22 2 -30 4 -17 2 12 2 30 0 40 -3 9 -5 -1 -4 -23z"/>
<path d="M3453 6546 c4 -37 2 -56 -6 -60 -7 -2 8 -4 33 -4 25 0 37 2 28 5 -10
2 -18 8 -18 13 0 5 -3 16 -7 26 -4 12 -3 15 5 10 14 -8 16 21 5 51 -6 16 -8
15 -14 -7 -7 -24 -7 -24 -8 -2 -1 12 -6 22 -12 22 -8 0 -10 -17 -6 -54z"/>
<path d="M4940 6583 c0 -10 5 -25 10 -33 8 -12 10 -9 10 12 0 15 -4 30 -10 33
-5 3 -10 -2 -10 -12z"/>
<path d="M5191 6558 c-19 -22 -53 -49 -75 -59 -23 -10 -34 -19 -26 -18 26 0
103 44 123 71 33 44 14 50 -22 6z"/>
<path d="M5650 6558 c0 -36 4 -35 14 5 4 16 2 27 -4 27 -5 0 -10 -14 -10 -32z"/>
<path d="M4926 6513 c-4 -13 -12 -23 -17 -23 -5 0 -9 -3 -9 -7 0 -5 24 -9 53
-10 52 -2 52 -2 20 12 -17 7 -33 22 -35 32 -4 16 -5 15 -12 -4z"/>
<path d="M5670 6516 c0 -8 -8 -20 -17 -25 -14 -8 -10 -10 22 -10 22 0 34 3 28
6 -7 2 -13 11 -13 18 0 8 -4 17 -10 20 -5 3 -10 -1 -10 -9z"/>
<path d="M4722 6500 c-11 -18 -10 -20 18 -20 29 0 29 1 13 20 -10 11 -18 20
-18 20 0 0 -6 -9 -13 -20z"/>
<path d="M4600 6502 c0 -6 -15 -16 -32 -21 l-33 -9 33 -1 c31 -1 54 21 38 36
-3 4 -6 1 -6 -5z"/>
<path d="M3677 6494 c-3 -4 -21 -10 -39 -14 l-33 -8 37 -1 c20 -1 40 4 43 10
8 12 1 22 -8 13z"/>
<path d="M5320 6490 c-11 -7 -3 -10 30 -9 34 0 40 2 25 9 -27 12 -37 12 -55 0z"/>
<path d="M5547 6494 c-3 -4 -21 -10 -39 -14 l-33 -8 37 -1 c20 -1 40 4 43 10
8 12 1 22 -8 13z"/>
<path d="M1620 6155 c-29 -30 -52 -57 -49 -59 2 -2 28 22 57 55 29 32 52 59
50 59 -2 0 -28 -25 -58 -55z"/>
<path d="M5717 6200 c91 -19 113 -54 113 -175 0 -41 4 -75 8 -75 4 0 8 47 7
104 0 57 3 102 8 99 4 -2 7 -1 7 4 0 14 -82 43 -135 48 l-50 4 42 -9z"/>
<path d="M6061 6195 c-24 -8 -48 -20 -52 -27 -5 -7 -8 -58 -8 -113 l2 -100 8
82 c12 111 21 130 71 153 51 22 41 24 -21 5z"/>
<path d="M1202 6146 c-31 -30 -47 -59 -108 -191 -29 -63 -36 -86 -60 -200 -9
-38 -20 -88 -25 -110 -6 -22 -10 -46 -11 -52 -2 -16 -14 -17 -23 -3 -12 19
-33 11 -28 -10 3 -11 0 -20 -6 -20 -6 0 -11 7 -11 15 0 9 -6 12 -15 9 -19 -8
-19 3 0 22 8 9 20 12 26 8 7 -4 10 -1 7 7 -3 8 -12 13 -21 13 -9 -1 -15 2 -12
6 6 10 -24 35 -32 26 -13 -12 -34 58 -39 133 -7 101 -16 118 -25 51 -10 -78 1
-250 17 -277 10 -15 11 -24 3 -29 -8 -4 -8 -9 -1 -13 6 -3 13 -20 16 -36 5
-24 4 -26 -3 -10 -9 19 -10 19 -10 -2 -1 -27 25 -167 40 -211 7 -21 14 -30 18
-23 9 14 50 -60 81 -149 32 -91 40 -94 33 -13 -6 76 1 128 17 118 6 -4 10 59
10 172 0 190 13 299 53 443 28 99 76 223 117 298 30 56 28 64 -8 28z m-192
-808 c0 -57 -3 -78 -10 -68 -13 20 -13 150 0 150 6 0 10 -34 10 -82z"/>
<path d="M5980 6159 c0 -5 5 -7 10 -4 6 3 10 8 10 11 0 2 -4 4 -10 4 -5 0 -10
-5 -10 -11z"/>
<path d="M2115 6098 c-106 -56 -193 -140 -248 -240 -46 -85 -56 -98 -77 -98
-11 0 -20 -5 -20 -12 0 -6 -3 -9 -6 -6 -3 4 -22 0 -41 -8 -19 -9 -37 -13 -40
-10 -9 9 8 26 25 26 15 0 15 2 2 10 -8 5 -21 10 -28 10 -15 0 -58 -88 -78
-159 l-13 -46 6 70 c4 52 3 67 -6 59 -30 -27 -68 -364 -42 -364 7 0 11 -8 9
-17 -2 -10 5 -34 17 -53 12 -19 30 -66 40 -105 10 -38 20 -64 23 -57 4 14 42
17 42 3 0 -5 7 -11 15 -15 12 -4 14 0 9 18 -6 24 10 44 20 27 4 -5 16 -4 31 2
25 12 33 27 14 27 -5 0 -8 4 -4 9 3 5 1 12 -4 15 -15 10 -10 58 5 52 8 -3 14
1 14 10 0 10 6 14 14 11 9 -4 13 -1 11 6 -2 7 -6 39 -10 72 -5 49 -3 57 7 47
9 -9 13 -42 13 -98 0 -46 3 -84 6 -84 4 0 12 13 18 29 10 23 9 45 -4 112 -28
147 -31 194 -18 283 12 82 29 134 40 122 3 -3 20 25 38 62 47 98 106 165 206
234 19 14 21 17 6 17 -9 1 -25 -8 -34 -19 -10 -11 -24 -20 -31 -20 -24 0 4 26
64 61 30 17 54 32 54 35 0 6 0 6 -45 -18z"/>
<path d="M2755 6110 c27 -12 43 -12 25 0 -8 5 -22 9 -30 9 -10 0 -8 -3 5 -9z"/>
<path d="M1600 6095 c-14 -7 -28 -11 -31 -9 -9 5 -56 -55 -104 -134 -24 -40
-44 -61 -54 -60 -9 2 -15 -3 -13 -11 1 -7 -5 -19 -14 -25 -9 -7 -25 -37 -36
-67 -19 -51 -24 -69 -46 -149 -9 -32 -10 -30 -11 29 -2 158 -39 -29 -48 -240
-6 -161 -5 -168 16 -198 16 -22 25 -57 34 -128 l12 -98 6 99 c5 76 11 104 27
126 17 22 21 45 24 143 1 65 0 117 -4 117 -4 0 -5 21 -3 48 8 70 14 94 25 87
6 -4 7 6 4 25 -5 22 -3 30 8 30 9 0 21 22 32 58 29 90 92 211 152 291 30 40
54 75 52 76 -2 2 -14 -3 -28 -10z m-323 -757 c-2 -18 -4 -6 -4 27 0 33 2 48 4
33 2 -15 2 -42 0 -60z m50 0 c-3 -8 -6 -5 -6 6 -1 11 2 17 5 13 3 -3 4 -12 1
-19z"/>
<path d="M2821 6085 c15 -8 30 -22 33 -32 6 -15 5 -15 -14 2 -11 10 -20 15
-20 12 0 -3 -16 1 -36 9 -20 8 -39 13 -41 10 -3 -3 7 -10 23 -16 148 -56 232
-143 252 -260 8 -50 36 -74 55 -49 15 20 22 159 9 159 -5 0 -13 -25 -17 -57
-7 -61 -25 -57 -25 7 0 39 -22 80 -66 123 -30 30 -153 107 -170 107 -5 -1 3
-7 17 -15z"/>
<path d="M8914 6056 c20 -18 37 -44 38 -57 0 -13 1 -193 2 -400 1 -343 2 -377
19 -393 13 -13 17 -35 17 -89 1 -40 3 -94 5 -122 7 -82 -3 -115 -39 -131 -17
-8 -44 -25 -60 -38 l-29 -24 54 18 c36 12 59 27 69 44 19 32 23 32 40 1 7 -14
27 -29 44 -34 17 -5 40 -12 51 -16 14 -5 11 1 -10 19 -16 14 -35 25 -41 26 -6
0 -18 8 -27 18 -14 15 -17 42 -17 160 0 129 2 144 20 162 19 19 20 33 20 435
l0 415 63 1 c230 3 265 -5 328 -71 64 -66 82 -122 77 -249 -2 -78 -1 -95 10
-85 7 7 15 27 19 44 3 17 9 28 14 23 9 -9 -9 -86 -33 -143 -26 -60 -94 -114
-180 -143 -10 -4 -18 -14 -18 -22 0 -11 6 -15 18 -11 9 2 33 8 52 11 19 4 53
17 75 30 49 29 112 92 91 92 -8 0 -14 -5 -13 -11 1 -6 -6 -10 -15 -8 -10 2
-18 -1 -18 -6 0 -6 -8 -13 -17 -16 -10 -4 3 15 28 41 45 46 70 84 97 148 11
28 12 28 7 3 -3 -14 -8 -34 -12 -44 -4 -11 -3 -15 4 -11 25 15 45 189 24 202
-6 3 -14 -14 -19 -37 -7 -29 -10 -35 -11 -18 -1 31 -35 125 -53 148 -96 124
-159 152 -352 158 -81 3 -142 0 -163 -7 -31 -10 -34 -14 -27 -38 4 -14 7 -33
6 -41 0 -8 -4 -78 -9 -155 l-8 -140 -6 100 c-4 55 -10 119 -13 143 -4 29 -3
41 4 37 6 -4 10 11 10 39 0 46 0 46 -35 46 -20 0 -52 7 -72 15 -49 21 -49 20
-9 -19z m82 -224 c2 -152 0 -172 -7 -107 -15 148 -19 319 -6 306 8 -8 12 -72
13 -199z m24 177 c0 -11 -4 -17 -10 -14 -5 3 -10 15 -10 26 0 11 5 17 10 14 6
-3 10 -15 10 -26z m567 -271 c-3 -7 -5 -2 -5 12 0 14 2 19 5 13 2 -7 2 -19 0
-25z m-590 -225 c-3 -10 -5 -4 -5 12 0 17 2 24 5 18 2 -7 2 -21 0 -30z m-3
-150 c-3 -49 -8 -90 -10 -92 -2 -2 -4 34 -4 81 0 74 4 98 16 98 2 0 1 -39 -2
-87z m43 -55 c-2 -29 -3 -8 -3 47 0 55 1 79 3 53 2 -26 2 -71 0 -100z"/>
<path d="M8183 6015 c-68 -19 -143 -57 -187 -96 -50 -43 -121 -146 -164 -236
l-37 -78 -6 35 -6 35 -12 -30 c-22 -52 -25 -149 -8 -207 9 -29 21 -72 27 -95
6 -24 20 -52 32 -62 11 -11 26 -30 33 -43 6 -13 16 -22 22 -21 6 1 10 -6 9
-15 0 -9 4 -18 9 -20 6 -2 22 -22 36 -45 31 -49 103 -118 149 -142 18 -9 29
-12 26 -6 -9 14 -7 14 44 -4 63 -22 60 -11 -7 24 -32 17 -74 47 -94 66 -20 19
-39 31 -43 28 -10 -10 -44 26 -55 59 -9 26 -9 29 4 18 9 -7 2 16 -15 54 -29
64 -60 183 -62 238 -1 15 -5 25 -10 22 -9 -6 -11 119 -1 154 4 18 8 21 15 10
7 -9 8 -5 5 14 -2 15 0 25 4 22 5 -3 9 1 9 9 0 8 16 46 35 84 43 86 103 144
193 186 85 40 215 49 307 22 155 -45 282 -189 318 -361 9 -46 13 -52 18 -33 6
23 4 -78 -6 -221 l-4 -65 15 40 c9 22 20 56 25 75 13 53 2 -80 -13 -152 -13
-62 -22 -72 -34 -36 -6 19 -9 15 -26 -28 -11 -27 -20 -55 -21 -62 0 -15 -101
-114 -145 -145 l-27 -19 30 7 c62 13 139 84 210 193 15 23 38 45 51 48 39 10
66 98 72 231 5 116 -2 183 -18 183 -6 0 -10 -22 -10 -50 0 -27 -4 -50 -10 -50
-5 0 -10 15 -10 34 0 38 -42 150 -78 208 -35 56 -139 146 -208 178 -123 59
-266 76 -381 45z m472 -125 c-3 -5 -11 -10 -16 -10 -6 0 -7 5 -4 10 3 6 11 10
16 10 6 0 7 -4 4 -10z m73 -115 c-3 -3 -9 2 -12 12 -6 14 -5 15 5 6 7 -7 10
-15 7 -18z m21 -60 c0 -5 -4 -3 -9 5 -5 8 -9 22 -9 30 0 16 17 -16 18 -35z
m26 -64 c3 -5 1 -12 -5 -16 -5 -3 -10 1 -10 9 0 18 6 21 15 7z m-879 -341 c16
-40 18 -80 5 -80 -10 0 -60 162 -53 174 5 8 23 -27 48 -94z m-71 11 c3 -5 1
-12 -5 -16 -5 -3 -10 1 -10 9 0 18 6 21 15 7z"/>
<path d="M3208 6013 c7 -3 16 -2 19 1 4 3 -2 6 -13 5 -11 0 -14 -3 -6 -6z"/>
<path d="M3266 6009 c63 -18 68 -33 76 -223 3 -94 10 -191 14 -216 4 -25 7
-52 6 -60 0 -8 -4 -66 -8 -129 -6 -93 -5 -113 6 -106 9 5 11 4 6 -4 -4 -6 -2
-27 4 -47 14 -40 17 -256 5 -324 -8 -52 -22 -83 -34 -76 -4 3 -17 -7 -28 -23
l-21 -28 39 20 c29 14 54 18 104 15 60 -3 64 -1 59 16 -4 11 -2 16 4 12 6 -3
13 -2 17 3 3 6 -7 17 -23 25 -38 20 -42 36 -49 189 -6 128 6 207 30 207 6 0 7
40 2 113 -4 61 -7 139 -6 172 2 131 18 411 25 426 9 21 48 39 89 40 l32 2 -29
4 c-30 5 -146 -35 -146 -50 0 -4 5 -5 12 -1 8 5 9 -2 5 -26 -4 -18 -7 -56 -8
-84 0 -28 -3 -44 -6 -36 -9 24 -35 50 -50 50 -12 0 -13 -9 -8 -40 4 -26 3 -40
-4 -40 -6 0 -11 21 -12 48 -1 26 -2 66 -3 89 -1 23 2 40 6 37 4 -3 8 -2 8 3 0
10 -105 53 -128 52 -9 0 -3 -5 14 -10z m176 -676 c-5 -59 -10 -63 -11 -10 -1
26 3 47 7 47 4 0 6 -17 4 -37z"/>
<path d="M4685 6011 c50 -8 64 -17 75 -47 5 -13 10 -125 11 -249 1 -167 4
-223 12 -219 8 5 7 2 0 -7 -15 -15 -18 -229 -4 -229 13 0 31 -60 34 -113 2
-39 4 -44 20 -36 19 11 22 25 7 34 -8 5 -8 11 0 20 6 7 8 19 5 27 -3 9 5 29
19 46 l26 30 0 345 c0 302 2 346 16 358 11 9 50 12 137 11 198 -2 324 -44 425
-141 62 -60 108 -127 135 -199 13 -36 27 -57 35 -55 8 3 12 -7 11 -34 -1 -35
-2 -36 -8 -9 -3 16 -7 -24 -8 -90 -1 -94 -6 -136 -25 -201 -14 -45 -21 -80
-16 -77 14 9 9 -10 -12 -41 -11 -16 -20 -26 -20 -22 0 4 -25 -13 -57 -38 -31
-25 -69 -53 -86 -61 -30 -16 -31 -32 0 -19 10 5 27 10 38 12 56 10 147 117
248 288 17 29 17 30 18 5 0 -18 4 -13 15 20 21 64 30 247 14 294 -14 45 -32
31 -25 -19 5 -28 4 -29 -10 -11 -8 11 -15 27 -15 36 0 28 -40 100 -55 100 -8
0 -14 3 -13 8 5 18 -14 50 -32 55 -13 3 -18 11 -14 21 3 9 2 16 -2 16 -5 0
-31 21 -59 45 -102 93 -247 136 -469 138 -122 1 -148 -2 -171 -17 -22 -15 -26
-23 -22 -49 3 -18 2 -63 -2 -102 -6 -51 -9 -59 -10 -29 0 23 -4 55 -7 72 -11
53 -34 14 -35 -60 -2 -53 -4 -44 -13 52 l-11 115 -35 17 c-19 10 -51 17 -70
17 l-35 -2 40 -6z m155 -161 c0 -5 -4 -10 -10 -10 -5 0 -10 5 -10 10 0 6 5 10
10 10 6 0 10 -4 10 -10z m794 -216 c3 -8 2 -12 -4 -9 -6 3 -10 10 -10 16 0 14
7 11 14 -7z m41 -251 c-17 -101 -27 -143 -36 -143 -14 0 -11 55 6 86 8 16 15
37 15 46 0 19 10 48 17 48 2 0 1 -17 -2 -37z"/>
<path d="M6951 5976 c-38 -41 -64 -106 -41 -106 6 0 10 6 10 13 0 7 13 28 28
46 22 26 38 36 73 40 58 8 56 24 -3 26 -37 2 -52 -3 -67 -19z"/>
<path d="M7090 5988 c0 -4 36 -8 80 -8 44 0 80 3 80 8 0 4 -36 7 -80 8 -44 0
-80 -3 -80 -8z"/>
<path d="M7275 5990 c-4 -6 6 -10 23 -10 25 0 29 -3 25 -20 -3 -11 0 -20 6
-20 23 0 11 41 -15 50 -31 12 -31 12 -39 0z"/>
<path d="M7460 5991 c-16 -5 25 -9 115 -13 183 -7 235 -29 235 -97 0 -12 5
-21 10 -21 6 0 10 24 10 53 0 49 -3 55 -27 67 -32 14 -304 24 -343 11z"/>
<path d="M7418 5985 c-8 -8 2 -45 13 -45 10 0 10 8 0 33 -3 10 -9 15 -13 12z"/>
<path d="M4800 5970 c0 -5 5 -10 11 -10 5 0 7 5 4 10 -3 6 -8 10 -11 10 -2 0
-4 -4 -4 -10z"/>
<path d="M4167 5925 c-13 -36 -14 -51 -5 -56 7 -4 2 -9 -13 -11 -21 -3 -29
-17 -61 -113 -21 -60 -55 -159 -77 -220 -53 -149 -56 -168 -34 -163 19 4 46
79 31 89 -12 8 2 40 15 32 6 -4 7 -1 2 6 -11 18 15 106 27 89 6 -9 7 -5 3 11
-5 17 -4 22 6 16 9 -6 11 -2 7 13 -4 12 -3 20 1 17 4 -2 23 39 42 92 19 53 39
98 45 100 5 2 21 -26 33 -62 13 -36 28 -64 35 -62 20 7 108 -213 122 -305 2
-16 -1 -28 -6 -28 -6 0 -10 -5 -10 -11 0 -6 9 -9 20 -6 22 6 37 -8 20 -18 -16
-10 -12 -23 7 -21 10 0 18 -6 19 -14 3 -36 5 -40 23 -40 22 0 71 -53 71 -78 1
-9 7 -28 15 -42 14 -24 14 -24 8 14 -4 24 -2 41 6 45 8 6 8 15 0 39 -13 37
-26 41 -32 10 -3 -22 -4 -22 -11 -3 -5 11 -42 106 -83 210 -41 105 -102 255
-135 335 -33 80 -64 154 -68 165 -5 15 -10 10 -23 -30z"/>
<path d="M5995 5930 c-3 -11 -3 -25 0 -30 4 -6 4 -19 0 -28 -9 -20 -11 -36
-13 -120 -2 -63 -2 -63 -29 -60 -20 2 -28 -2 -28 -12 -1 -19 -14 -40 -26 -40
-11 0 -7 22 6 32 6 4 0 8 -11 8 -25 0 -30 14 -32 95 -3 77 -13 167 -19 161 -2
-2 -4 -152 -3 -333 1 -308 2 -331 21 -370 19 -39 20 -56 15 -245 -5 -215 -16
-277 -56 -308 -11 -8 -22 -25 -25 -38 -4 -21 -3 -21 25 -7 18 9 31 26 35 45 4
16 12 30 19 30 7 0 22 9 34 20 12 11 32 21 46 22 22 2 24 6 21 48 -2 25 -4
120 -5 212 -1 158 9 240 30 253 9 6 15 685 6 685 -3 0 -7 -9 -11 -20z m-110
-269 c3 -5 1 -12 -5 -16 -5 -3 -10 1 -10 9 0 18 6 21 15 7z m-6 -308 c0 -32
-3 -42 -8 -29 -7 18 -3 76 5 76 2 0 4 -21 3 -47z m98 -25 c-3 -8 -6 -5 -6 6
-1 11 2 17 5 13 3 -3 4 -12 1 -19z m-14 -532 c3 -8 -1 -17 -9 -20 -9 -4 -14 1
-14 14 0 23 15 27 23 6z"/>
<path d="M3380 5924 c0 -8 10 -24 22 -36 l21 -21 9 23 c12 32 6 42 -25 46 -18
2 -27 -2 -27 -12z"/>
<path d="M7320 5571 c0 -189 4 -320 9 -317 29 18 38 -188 11 -258 -9 -25 -9
-26 35 -26 l44 0 -10 32 c-14 51 -11 202 5 245 17 44 32 578 17 587 -13 8 -21
-19 -21 -67 0 -23 -5 -49 -10 -57 -7 -11 -10 -4 -10 28 0 33 -4 42 -17 42 -15
0 -16 -2 -3 -10 9 -6 10 -10 3 -10 -6 0 -13 -15 -15 -32 -2 -20 -8 4 -16 62
-7 52 -15 96 -18 99 -2 2 -4 -141 -4 -318z"/>
<path d="M6556 5852 c-20 -23 -155 -403 -148 -419 2 -7 7 -13 11 -13 4 0 38
92 76 205 38 113 73 204 79 202 5 -2 41 -94 80 -205 68 -193 72 -202 94 -197
19 5 23 2 20 -12 -6 -33 -71 -45 -213 -40 -71 3 -138 7 -149 9 -15 2 -23 -10
-43 -61 -13 -35 -21 -66 -18 -69 3 -3 5 1 5 9 0 12 2 12 9 0 6 -9 13 1 25 37
10 29 25 53 34 56 26 7 315 1 329 -7 6 -4 19 -30 28 -58 11 -33 21 -49 30 -45
8 3 18 -1 24 -7 15 -19 101 -238 101 -259 0 -15 8 -18 45 -18 25 0 62 -7 82
-15 20 -8 37 -14 39 -13 1 2 -23 25 -54 52 -32 27 -69 67 -84 90 -28 41 -37
86 -18 86 6 0 6 10 -1 28 -5 15 -12 34 -15 42 -5 12 -8 12 -20 -4 -13 -18 -15
-17 -30 20 -54 132 -118 283 -129 304 -8 14 -22 45 -33 70 -59 137 -108 232
-123 240 -12 7 -21 4 -33 -8z"/>
<path d="M4345 5648 c25 -100 65 -200 84 -212 18 -12 13 10 -35 131 -54 135
-68 158 -49 81z"/>
<path d="M3988 5578 c-14 -40 -29 -81 -33 -90 -4 -11 -3 -18 4 -18 6 0 14 14
18 30 3 17 10 30 15 30 5 0 7 4 4 9 -3 5 1 21 8 37 21 43 28 74 19 74 -5 0
-21 -33 -35 -72z"/>
<path d="M9605 5569 c-4 -6 -5 -13 -2 -16 7 -7 27 6 27 18 0 12 -17 12 -25 -2z"/>
<path d="M9180 5429 c31 -13 101 -79 147 -141 24 -33 42 -48 58 -48 22 0 79
-64 129 -145 44 -71 131 -167 179 -198 81 -52 84 -52 47 -12 l-35 38 46 -27
c25 -14 48 -26 52 -26 3 0 -19 24 -48 54 -29 30 -92 107 -140 170 -78 105
-114 136 -99 88 3 -9 -12 3 -33 28 -21 25 -66 73 -100 107 -41 41 -61 68 -57
78 5 12 -2 15 -29 15 -19 0 -54 7 -77 15 -47 16 -80 20 -40 4z"/>
<path d="M3240 5349 c0 -5 5 -7 10 -4 6 3 10 8 10 11 0 2 -4 4 -10 4 -5 0 -10
-5 -10 -11z"/>
<path d="M2600 5340 c0 -5 6 -10 14 -10 8 0 17 -6 19 -12 4 -10 6 -10 6 -1 1
7 -8 17 -19 23 -14 7 -20 7 -20 0z"/>
<path d="M3928 5297 c-20 -46 -24 -87 -6 -49 6 12 16 21 22 19 6 -2 17 2 24
10 10 9 50 13 149 13 75 0 133 3 130 7 -4 3 -60 7 -124 9 -142 4 -155 5 -168
22 -7 9 -15 1 -27 -31z"/>
<path d="M2673 5323 c9 -2 23 -2 30 0 6 3 -1 5 -18 5 -16 0 -22 -2 -12 -5z"/>
<path d="M2795 5312 c50 -31 60 -85 59 -318 0 -186 -2 -204 -22 -243 -27 -51
-27 -49 -1 -53 l21 -3 -21 -27 c-12 -15 -38 -32 -59 -39 -41 -15 -233 -18
-324 -7 -125 16 -278 86 -372 169 -62 56 -74 79 -23 49 17 -11 36 -20 41 -20
17 0 -57 70 -100 95 -22 13 -53 42 -67 64 -15 23 -29 41 -31 41 -15 0 17 -59
62 -115 51 -64 62 -82 42 -70 -5 3 -10 1 -10 -5 0 -7 6 -10 14 -7 15 6 60 -35
50 -45 -3 -4 16 -16 43 -28 42 -20 46 -23 28 -31 -18 -9 -18 -9 3 -5 25 5 104
-35 83 -42 -8 -3 -5 -10 9 -19 16 -11 24 -12 29 -4 10 16 68 -8 74 -31 6 -20
37 -25 37 -5 0 8 3 8 9 -2 6 -9 5 -19 -2 -26 -8 -8 -14 -9 -18 -3 -4 7 -9 6
-13 0 -9 -15 57 -32 129 -32 51 -1 129 -9 220 -24 68 -12 234 -107 303 -174
23 -23 47 -42 53 -42 5 0 7 -4 4 -10 -3 -5 0 -7 9 -4 10 4 19 -10 31 -53 16
-54 39 -93 55 -93 4 0 5 11 2 25 -2 14 -7 25 -11 25 -3 0 -7 10 -7 23 -2 32
-23 149 -31 167 -3 8 -5 30 -4 48 2 17 -2 32 -7 32 -16 0 -22 43 -27 178 -17
472 -13 572 24 623 19 25 19 28 4 23 -13 -4 -12 0 6 15 l23 21 -173 0 c-173 0
-174 0 -144 -18z m-364 -719 c13 -17 13 -17 -6 -3 -11 8 -22 16 -24 17 -2 2 0
3 6 3 6 0 17 -8 24 -17z m609 -46 c0 -2 -10 -12 -22 -23 l-23 -19 19 23 c18
21 26 27 26 19z m-53 -89 c-3 -8 -6 -5 -6 6 -1 11 2 17 5 13 3 -3 4 -12 1 -19z
m66 -72 c3 -8 -2 -16 -14 -19 -15 -4 -18 -2 -10 7 6 7 8 16 4 19 -3 4 -2 7 4
7 6 0 13 -6 16 -14z"/>
<path d="M3124 5321 c5 -8 56 -3 56 5 0 2 -14 4 -31 4 -16 0 -28 -4 -25 -9z"/>
<path d="M3110 5290 c0 -5 7 -7 15 -4 8 4 15 8 15 10 0 2 -7 4 -15 4 -8 0 -15
-4 -15 -10z"/>
<path d="M6290 5235 c-12 -32 6 -78 21 -54 12 19 11 66 -1 74 -6 3 -15 -6 -20
-20z"/>
<path d="M3859 5223 c-7 -18 -7 -34 -1 -43 6 -10 4 -31 -4 -60 -14 -47 -11
-69 4 -29 30 77 40 119 35 138 -7 29 -21 26 -34 -6z"/>
<path d="M4430 5242 c0 -22 13 -42 26 -42 20 0 17 14 -6 35 -11 10 -20 13 -20
7z"/>
<path d="M1770 5200 c0 -5 5 -10 10 -10 6 0 10 5 10 10 0 6 -4 10 -10 10 -5 0
-10 -4 -10 -10z"/>
<path d="M1850 5091 c0 -6 4 -13 10 -16 6 -3 7 1 4 9 -7 18 -14 21 -14 7z"/>
<path d="M1870 5051 c0 -6 4 -13 10 -16 6 -3 7 1 4 9 -7 18 -14 21 -14 7z"/>
<path d="M1755 5040 c3 -5 8 -10 11 -10 2 0 4 5 4 10 0 6 -5 10 -11 10 -5 0
-7 -4 -4 -10z"/>
<path d="M3811 5001 c-23 -55 -25 -61 -13 -61 9 0 46 100 39 106 -2 3 -14 -18
-26 -45z"/>
<path d="M6235 5004 c-9 -15 -22 -23 -30 -20 -8 3 -17 0 -21 -5 -3 -6 -20 -20
-38 -31 -17 -11 -22 -17 -11 -13 104 38 109 41 116 68 9 34 6 34 -16 1z"/>
<path d="M4893 4992 c-13 -2 -23 -7 -23 -13 0 -14 47 -22 66 -11 16 9 16 10
-2 19 -10 5 -29 7 -41 5z"/>
<path d="M3959 4908 c-6 -13 -21 -33 -32 -45 -16 -18 -17 -23 -6 -23 8 0 25
20 37 45 22 45 23 65 1 23z"/>
<path d="M4615 4900 c3 -5 8 -10 11 -10 2 0 4 5 4 10 0 6 -5 10 -11 10 -5 0
-7 -4 -4 -10z"/>
<path d="M1897 4872 c-9 -10 -17 -25 -17 -33 0 -8 -3 -19 -7 -25 -5 -5 0 -1 9
9 10 10 22 16 27 13 11 -7 23 36 12 47 -4 4 -15 -1 -24 -11z"/>
<path d="M4647 4849 c20 -20 102 -54 110 -45 7 6 -76 55 -104 62 l-28 6 22
-23z"/>
<path d="M1909 4783 c-13 -16 -12 -17 4 -4 9 7 17 15 17 17 0 8 -8 3 -21 -13z"/>
<path d="M1990 4781 c0 -5 5 -13 10 -16 6 -3 10 -2 10 4 0 5 -4 13 -10 16 -5
3 -10 2 -10 -4z"/>
<path d="M5983 4713 c3 -10 8 -28 12 -40 4 -16 14 -23 31 -23 13 0 24 2 24 5
0 2 -16 20 -36 40 -23 23 -34 29 -31 18z"/>
<path d="M2080 4690 c0 -5 7 -10 16 -10 8 0 12 5 9 10 -3 6 -10 10 -16 10 -5
0 -9 -4 -9 -10z"/>
<path d="M2145 4690 c-4 -6 -2 -17 4 -23 15 -15 25 -2 13 19 -7 12 -11 13 -17
4z"/>
<path d="M2000 4680 c0 -5 5 -10 11 -10 5 0 7 5 4 10 -3 6 -8 10 -11 10 -2 0
-4 -4 -4 -10z"/>
<path d="M2265 4631 c5 -17 3 -20 -11 -14 -12 5 -15 3 -9 -6 4 -8 2 -17 -6
-22 -11 -7 -11 -9 -1 -9 31 0 55 51 31 66 -8 4 -9 0 -4 -15z"/>
<path d="M2301 4614 c0 -11 3 -14 6 -6 3 7 2 16 -1 19 -3 4 -6 -2 -5 -13z"/>
<path d="M2160 4610 c0 -5 10 -10 23 -10 18 0 19 2 7 10 -19 13 -30 13 -30 0z"/>
<path d="M2295 4580 c-3 -5 1 -10 10 -10 9 0 13 5 10 10 -3 6 -8 10 -10 10 -2
0 -7 -4 -10 -10z"/>
<path d="M2198 4313 c7 -3 16 -2 19 1 4 3 -2 6 -13 5 -11 0 -14 -3 -6 -6z"/>
<path d="M2290 4310 c-13 -8 -12 -10 3 -10 9 0 17 5 17 10 0 12 -1 12 -20 0z"/>
<path d="M2330 4305 c0 -7 30 -13 34 -7 3 4 -4 9 -15 9 -10 1 -19 0 -19 -2z"/>
<path d="M2405 4285 c17 -8 37 -14 46 -15 20 0 160 -58 174 -71 5 -6 4 -9 -3
-9 -7 0 -12 -5 -12 -11 0 -6 8 -8 19 -4 28 8 77 -15 172 -81 46 -32 78 -50 70
-41 -21 27 -166 120 -256 165 -86 43 -149 66 -205 76 l-35 6 30 -15z"/>
<path d="M2531 4194 c0 -11 3 -14 6 -6 3 7 2 16 -1 19 -3 4 -6 -2 -5 -13z"/>
<path d="M1670 4160 c-19 -11 -31 -19 -27 -20 11 0 67 29 67 35 0 7 -1 7 -40
-15z"/>
<path d="M1595 4120 c-3 -6 1 -7 9 -4 18 7 21 14 7 14 -6 0 -13 -4 -16 -10z"/>
<path d="M2890 4036 c0 -2 8 -10 18 -17 15 -13 16 -12 3 4 -13 16 -21 21 -21
13z"/>
<path d="M2931 3997 c2 -1 13 -9 24 -17 19 -14 19 -14 6 3 -7 9 -18 17 -24 17
-6 0 -8 -1 -6 -3z"/>
</g>
</svg>
